<?xml version="1.0" encoding="UTF-8"?>
<svg width="149px" height="128px" viewBox="0 0 149 128" version="1.1" xmlns="http://www.w3.org/2000/svg" xmlns:xlink="http://www.w3.org/1999/xlink">
    <!-- Generator: Sketch 41 (35326) - http://www.bohemiancoding.com/sketch -->
    <title>logo@2x</title>
    <desc>Created with Sketch.</desc>
    <defs></defs>
    <g id="Page-1" stroke="none" stroke-width="1" fill="none" fill-rule="evenodd">
        <g id="Desktop-HD" transform="translate(-646.000000, -158.000000)">
            <g id="header1">
                <g id="logo" transform="translate(648.000000, 160.000000)">
                    <path d="M134.006297,61.187437 C134.006297,94.7945481 106.754394,122.039585 73.1388129,122.039585 C39.5184903,122.039585 12.2665871,94.7945481 12.2665871,61.187437 C12.2665871,27.5755852 39.5184903,0.330548148 73.1388129,0.330548148 C106.754394,0.330548148 134.006297,27.5755852 134.006297,61.187437 Z" id="Stroke-1" stroke="#FFFFFF" stroke-width="4"></path>
                    <path d="M100.349935,65.1943111 C92.6063548,93.6814222 65.8950323,111.890607 37.6615484,109.799941 C43.7312258,114.498015 50.7919677,118.105719 58.6446129,120.239052 C90.7664839,128.966756 123.912613,109.866311 132.689935,77.5676444 C141.467258,45.2737185 122.551677,12.0269037 90.4298065,3.30394074 C86.641,2.2752 82.8379677,1.64468148 79.068129,1.36971852 C97.7940323,15.8716444 106.974419,40.7984593 100.349935,65.1943111" id="Fill-3" fill="#FFFFFF"></path>
                    <path d="M79.0667065,1.36782222 L37.6648677,109.802785" id="Stroke-5" stroke="#FFFFFF" stroke-width="4"></path>
                    <polygon id="Stroke-7" stroke="#FFFFFF" stroke-width="4" stroke-linecap="round" stroke-linejoin="round" points="127.449148 88.8079407 144.562794 60.9418667 127.994471 34.7966815 106.252697 0.369422222 72.6466 0.369422222 38.3149871 0.369422222 16.5779548 34.7966815 0.370019355 60.5578667 17.8487935 88.9074963 39.2301806 123.628681 72.2862129 123.628681 106.063019 123.628681"></polygon>
                </g>
            </g>
        </g>
    </g>
</svg>